<svg id="レイヤー_1" data-name="レイヤー 1" xmlns="http://www.w3.org/2000/svg" xmlns:xlink="http://www.w3.org/1999/xlink" viewBox="0 0 1576 510"><defs><style>.cls-1{fill:none;}.cls-2{clip-path:url(#clip-path);}.cls-3{fill:#008664;}.cls-4{fill:#c2ffff;}.cls-5{fill:#3c0000;}.cls-6{fill:#fff;}.cls-7{fill:#ffacff;}</style><clipPath id="clip-path"><rect class="cls-1" x="0.44" y="-0.28" width="510.28" height="510.28"/></clipPath></defs><g id="Color-logo-circle"><g class="cls-2"><g class="cls-2"><path class="cls-3" d="M446.76,254.86C446.76,360.45,361.17,446,255.58,446S64.4,360.45,64.4,254.86,150,63.68,255.58,63.68s191.18,85.59,191.18,191.18"/><path class="cls-4" d="M410.2,238.42q-40.87-3-44.88-3c-1.54,0-2.4-.35-2.57-1-.29-1-.65-2.58-1.07-4.73s-.78-3.74-1.09-4.78-.78-2.46-1.47-4.38-1.19-3.34-1.46-4.31c-.21-.7.21-1.53,1.27-2.48q5.06-4.43,35.48-27.54,22.9-17.38,29.52-22a191.63,191.63,0,0,0-29.61-40.86,1.62,1.62,0,0,1-.46.91q-2.1,2.25-6.76,6.5t-6.8,6.55a7.39,7.39,0,0,0-1.7,3.87q-1.62,12-6,35.91a7.83,7.83,0,0,1-1.55,3.62q-2.37,2.55-6.86,7.88t-6.85,7.88c-.87.94-1.58,1.14-2.15.61q-2.58-2.4-7.66-7.51T339.84,182c-.66-.6-.78-1.12-.39-1.54q2-2.17,6.25-6.34t6.25-6.34q1.19-1.28,2.19-9.84c.49-4.51.78-8.07.84-10.7q-3.63.42-10.31,1.81-8.39,1.69-9.38,2.76-2,2.12-5.66,6.73T324,165.25c-.55.6-1,.82-1.33.67l-1.06-1Q319,162.56,313.7,158t-7.92-6.93c-.57-.53-.29-1.4.84-2.62q2.1-2.25,6.22-6.85t6.25-6.89a9.54,9.54,0,0,1,3.64-2.55,189.94,189.94,0,0,1,36.67-9,7.52,7.52,0,0,0,4.36-2q2.1-2.25,6-7t6-6.94a2.45,2.45,0,0,1,.66-.54A190.24,190.24,0,0,0,271.18,64.31q.65,6,1.4,16.25.94,12.61,1.71,18.89.81,6.67,3,20t3,20a1.1,1.1,0,0,1-1.05,1.41c-1.19.15-3,.31-5.4.49s-4.22.34-5.4.49-3.08.43-5.54.85-4.3.7-5.53.85c-.65.08-1-.22-1.1-.91-.36-2.88-.67-7.21-1-13s-.6-10.12-.95-13c-.16-1.35-.62-2.09-1.38-2.23-1-.18-6,.27-14.79,1.35q-12.31,1.51-14.21,2.21c-.9.34-1.26,1.19-1.09,2.53q.49,4.14,1.93,12.47t2,12.52c.15,1.19-.26,1.84-1.22,2-1.11.14-2.82.29-5.11.45s-4,.32-5.17.46-2.81.4-5.08.8-4,.66-5.12.8-1.73-.25-1.84-1.17q-.81-6.62-1.91-20t-1.91-20.09q-.76-6.27-2.91-18.74Q194.83,79.81,194,73.82a190.69,190.69,0,0,0-62.28,35.4,39.25,39.25,0,0,1,15.91-2.86q16.85.31,29.66,12.92t13.47,29.54q.67,17.25-11.9,30t-29.79,12.32q-17-.39-29.78-13t-13.51-29.5a38.71,38.71,0,0,1,2.69-15.95,190.88,190.88,0,0,0-35.19,64.33q5.94.55,15.49,1.74,12.59,1.56,18.89,2,6.7.51,25.19,1.32,4.8.31,14.31.56l1,0c.78,0,1.1.86,1,2.51q-.24,3.18-.51,9.56t-.52,9.55c0,.43-.89,1-2.57,1.61L107.2,240.07c-2.59,1-3.92,1.91-4,2.72,0,.43,1.34,1.44,4.13,3.05q11.7,6.75,35.28,20c1.46.77,2.15,1.54,2.1,2.31-.09,1.12-.27,2.8-.56,5s-.47,3.95-.56,5.11c-.07,1-.09,2.44,0,4.44s0,3.48,0,4.45c-.09,1.15-.59,1.69-1.52,1.62q-6.83-.51-20.34-2t-20.34-2q-6.3-.48-18.94-.91-9.91-.33-15.89-.7a189.64,189.64,0,0,0,13.3,46.93q5.52-3.42,16.71-9.55,11.43-6.26,16.94-9.69T134,297.27q3.85-2.59,11.43-7.86l.66-.48c.71-.53,1.35-.36,1.9.53q2.27,3.65,6.62,11.07t6.61,11.08q2.23,3.58,6.94,10.7c3.13,4.75,5.44,8.31,6.94,10.71q1.59,2.57-.09,4.15-1,.94-6.39,5c-3.61,2.73-5.82,4.34-6.64,4.85a1.05,1.05,0,0,1-1.65-.34c-.12-.19-.32-.55-.59-1.06q-7.06-13.77-13.56-24.2c-1.08-1.74-2.16-2.55-3.22-2.44a18.28,18.28,0,0,0-3.94,2.11q-3.36,2.08-3.82,3.75-.42,1.41,1.05,3.78c.21.32.63,1,1.27,1.87s1.16,1.69,1.55,2.32q3.85,6.2,8.15,12.34l1.93,2.55a28.06,28.06,0,0,1,1.85,2.53,1.19,1.19,0,0,1-.3,1.82.25.25,0,0,1-.09.07l.09-.07c.12-.13-2.6,1.15-8.18,3.87a91.73,91.73,0,0,0-8.12,4.51c-.65.41-1.28.13-1.87-.82l-2.26-4.73q-1.45-3-7.67-13l-3.25-5.22c-.84-1.35-1.66-1.93-2.45-1.75-.19.07-1.22.68-3.09,1.85-2.49,1.55-4,2.71-4.51,3.49-.9,1.34-.34,3.89,1.7,7.68l4.47,7.19q1.64,2.61,5.3,7.46T126,370c.45.72.08,1.45-1.1,2.19a77.09,77.09,0,0,1-8.3,4,67.76,67.76,0,0,1-6.57,2.6,191.18,191.18,0,0,0,289.54,1.78c-1.51-.1-3.38-.3-5.64-.6q-9.26-1.23-10.7-2.31c-.34-.25-.38-.65-.13-1.18q3.53-7.86,4.09-10.85,1.21-6.63-3.51-10.18-3-2.26-9.09-1.9-10.41.74-11.46.68a23.62,23.62,0,0,1-13.06-4.81q-8.49-6.37-8.21-18.42a44,44,0,0,1,5.78-20.24,9.88,9.88,0,0,1,.55-.83c.34-.46,1-.55,1.94-.27q4.29,1.33,16.45,3.58a1.42,1.42,0,0,1,.57.21.9.9,0,0,1,.16,1.43,10.39,10.39,0,0,1-1.08,1.14,12.81,12.81,0,0,0-1.14,1.24,13.66,13.66,0,0,0-2.86,7A6.81,6.81,0,0,0,364.9,331c1.88,1.41,5,2,9.46,1.88q11.83-.31,12.42-.31a23.3,23.3,0,0,1,12.62,4.33Q408.81,344,409.58,357A40,40,0,0,1,408.21,370a190.54,190.54,0,0,0,31.73-64.34,1.62,1.62,0,0,1-1.76.59q-6.68-1.46-19.93-4.9t-19.94-4.89q-4.43-1-19.82-3.8-1.32,11.58-2.77,18.32c-.13.61-.38.87-.76.79a35,35,0,0,1-4.19-1.74q-3.78-1.75-4.6-2.06c-1.75-.49-3.5-1-5.24-1.54q-4.17-1.32-4-2.28c0-.07.09-.33.23-.78q3.17-8.92,7-26.89,1.11-5.1,3-19.05,1-7.49,1-7.54a3.19,3.19,0,0,1,.42-1.28c.12-.09.5-.08,1.15,0,1,.22,2.43.56,4.23,1,2,.5,3.4.85,4.23,1a35.68,35.68,0,0,0,4.24.53,36.48,36.48,0,0,1,4.19.51c.76.17,1,.66.86,1.49q-.46,2.16-4.53,16.88,14.26,3.43,19.94,4.65,6.67,1.46,20.23,3.8t20.24,3.8c.69.15,1.09.41,1.22.77a192.23,192.23,0,0,0,2.08-28.26q0-7.14-.52-14.16-8-.28-36-2.28"/><path class="cls-5" d="M325,390.87V265.6h30.11l-98.28-87.54L158.57,265.6h30.11V390.87H121.24a191.16,191.16,0,0,0,268.69,0Z"/><path class="cls-6" d="M180.34,397h8.81l8.53,22.38h-10l-.77-2.94h-5.13l-.87,2.94h-9.14Zm5.13,13.82-1-4.55h-.06l-1,4.55Z"/><rect class="cls-6" x="200.3" y="396.98" width="9.21" height="22.37"/><path class="cls-6" d="M214.12,397h9.18c4.6,0,10.88,1.15,10.88,7.11a6.27,6.27,0,0,1-2.82,5.32l5.1,9.95h-9.67L223.45,412h-.12v7.36h-9.21Zm9.89,9.89c1.45,0,2.1-.77,2.1-1.73s-.68-1.7-2.1-1.7h-.68v3.43Z"/><polygon class="cls-6" points="239.01 396.99 248.22 396.99 248.22 411.42 255.14 411.42 255.14 419.36 239.01 419.36 239.01 396.99"/><rect class="cls-6" x="258.75" y="396.98" width="9.21" height="22.37"/><polygon class="cls-6" points="272.57 396.99 280.94 396.99 287.53 406.53 287.59 406.5 287.59 396.99 295.87 396.99 295.87 419.36 287.5 419.36 280.91 409.81 280.85 409.84 280.85 419.36 272.57 419.36 272.57 396.99"/><polygon class="cls-6" points="300.55 396.99 316.64 396.99 316.64 404.46 309.75 404.46 309.75 405.67 315.32 405.67 315.32 410.98 309.75 410.98 309.75 412.25 317.08 412.25 317.08 419.36 300.55 419.36 300.55 396.99"/><path class="cls-6" d="M321.24,410.27a15.64,15.64,0,0,0,7.36,2.66c.92,0,1.14-.37,1.14-.74s-.28-.62-.68-.71c-1.08-.28-4.2-.62-6.49-2.63a5.91,5.91,0,0,1-2-4.67c0-4.48,3.47-7.54,9.12-7.54a19.14,19.14,0,0,1,8,1.77v7.32a17.71,17.71,0,0,0-6.76-2c-.9,0-1.15.34-1.15.68s.34.65.71.77c.93.28,4,.65,6.21,2.38A5.88,5.88,0,0,1,339,412.4c0,4.3-3.46,7.3-9.33,7.3a19.78,19.78,0,0,1-8.38-1.83Z"/><path class="cls-7" d="M255.64,277.75c3.92-12.58,13.66-18.64,24.58-18.64,13.06,0,23,10.92,23,24.1,0,15.91-8.72,27.62-17.57,38.47-6.6,8.09-16,13.13-22.44,17.65a15.11,15.11,0,0,1-8.7,2.74h-.26c-3.35,0-6.36-1.46-9.26-3.14a76.67,76.67,0,0,1-19.54-17.25c-8.9-10.8-17.57-22.56-17.57-38.47,0-13.41,10.33-24.1,23.15-24.1,10.81,0,20.43,6.06,24.34,18.64Z"/></g></g></g><path class="cls-3" d="M543,219.79q0,8.57-7.22,14.69a30.9,30.9,0,0,1-15.41,6.88,4,4,0,0,1-.54,0q-1,0-4.31-5.93c-2.22-3.95-3.34-6.37-3.34-7.24,0-.31.22-.51.64-.59a45.34,45.34,0,0,0,8.1-2.36q4.4-2.21,4.39-6.51c0-1.83-.95-3.87-2.87-6.12-3.32-3.82-5.12-6-5.4-6.37a17.22,17.22,0,0,1-2.91-9.71q0-7.73,7.13-12.84a32,32,0,0,1,14.31-5.48c.31,0,.55-.05.72-.05.42,0,.76.34,1,1q1.1,3.08,5.11,11.14a.94.94,0,0,1,.13.42c0,.48-.26.72-.76.72a8.74,8.74,0,0,1-1.14-.12,7.88,7.88,0,0,0-1.23-.13,10,10,0,0,0-5.32,1.39,5,5,0,0,0-2.74,4.48c0,1.71,1,3.83,3,6.33,3.57,4.5,5.45,6.87,5.61,7.09A17,17,0,0,1,543,219.79Z"/><path class="cls-3" d="M577.93,226.84a35.27,35.27,0,0,1-.32,3.84,35.22,35.22,0,0,0-.32,3.78A3,3,0,0,1,577,236a5.17,5.17,0,0,1-1.39,1,24.62,24.62,0,0,1-12.08,3q-12.2,0-12.2-9.33,0-2.79.21-8.38c.14-3.73.21-6.53.21-8.38,0-1.24-.71-1.86-2.15-1.86h-.55a4.79,4.79,0,0,1-.55,0c-1.07,0-1.6-.38-1.6-1.14,0-.45,0-1.14.11-2.07s.1-1.61.1-2.07,0-1.49-.1-2.7-.11-2.11-.11-2.7.9-.87,2.7-.93c1,0,1.56-.31,1.65-.84a31.78,31.78,0,0,0,.17-5.07c-.12-3.63-.17-5.36-.17-5.19,0-3.27.31-4.9.93-4.9a15,15,0,0,1,3.25.51,27.5,27.5,0,0,0,3.33.63q2.16.3,6.5.8c.71.06,1.06.3,1.06.72,0,1.13-.09,2.83-.28,5.11s-.27,4-.27,5.15q0,2.07,1.23,2.07c1,0,2.47,0,4.47-.13s3.5-.12,4.52-.12q.93,0,.93.63c0,.65-.08,1.62-.22,2.91s-.21,2.27-.21,2.92,0,1.66.05,2.95,0,2.28,0,3-.41.88-1.23.88q-.84,0-2.82-.06c-1.33,0-2.27-.07-2.83-.07h-3.17q-.63,0-.63,1.86v3c0,1.35,0,2.35,0,3a10.49,10.49,0,0,0,.8,4.89q1.14,1.81,4.48,1.82a13.22,13.22,0,0,0,3-.49,13.69,13.69,0,0,1,2.77-.48C577.63,225.91,577.93,226.22,577.93,226.84Z"/><path class="cls-3" d="M624.79,218.1c0,2.17.12,5.39.38,9.67s.38,7.48.38,9.62c0,1.13-.5,1.73-1.48,1.82q-5.24.38-12,.38-.81,0-1.08-2.43c-.18-1.62-.4-2.44-.65-2.47a3.73,3.73,0,0,0-.89.72q-4.73,4.77-10.13,4.77a17,17,0,0,1-13.64-6.5,21.9,21.9,0,0,1-5.1-14.53q0-9.75,5.27-15.7,5.49-6.16,15-6.16a12.85,12.85,0,0,1,10.47,4.64q.17.21.3.21c.25,0,.54-.68.86-2s.71-2,1.16-2a37.06,37.06,0,0,1,6,.88,60.49,60.49,0,0,1,6,1.44c.42.17.63.39.63.67a7.82,7.82,0,0,1-.12.89A92.82,92.82,0,0,0,624.79,218.1Zm-13.6.25a8.18,8.18,0,0,0-2.26-5.93,8.57,8.57,0,0,0-11.75,0,8.74,8.74,0,0,0,.12,11.82,7.7,7.7,0,0,0,5.74,2.45,7.83,7.83,0,0,0,5.87-2.34A8.24,8.24,0,0,0,611.19,218.35Z"/><path class="cls-3" d="M674.64,209.11q0,8.19-.5,10-.64,2.12-9.25,15.28-1.35,2.07-7,9.58-6.21,8.28-7,8.74-1,.65-13,.64a4.74,4.74,0,0,1-2.45-.43c-.37-1.15-.83-2.51-1.4-4.09-.45-1-.9-2-1.35-3a9.81,9.81,0,0,1-1-2.91c0-.54.24-.8.72-.8q11.73,0,11.74-5.36,0-.47-5.75-8.41c-4-5.43-6.15-8.86-6.54-10.3a57.89,57.89,0,0,1-.34-8.73c0-1,0-2.54.09-4.59s.08-3.56.08-4.58c0-.73.47-1.09,1.39-1.09,1.44,0,3.61,0,6.53.12s5.08.13,6.52.13c.59,0,.89.44.89,1.31s-.05,2-.13,3.57-.13,2.78-.13,3.56q0,5.32.17,7.22.13,1.48,2.53,5.49,2.54,4.19,3.68,4.18,1,0,3.29-4.14a19.47,19.47,0,0,0,2.32-5.27,72.16,72.16,0,0,0,.42-8.07c0-.76-.07-1.91-.21-3.46s-.21-2.71-.21-3.5c0-.54.3-.81.89-.81q2.14,0,6.44-.16c2.85-.12,5-.17,6.43-.17a1.45,1.45,0,0,1,1.48,1.09C674.45,201.41,674.64,204.41,674.64,209.11Z"/><path class="cls-3" d="M743.45,208.6l-.08,29.13c0,1-.39,1.53-1.18,1.65s-3,.16-6.17.16a42,42,0,0,1-6.45-.33,1.62,1.62,0,0,1-1.4-1.82q0-3.63.13-10.93c.08-4.87.13-8.52.13-10.94q0-4.94-5-4.94a8.05,8.05,0,0,0-4,1.36c-1.66,1-2.49,2-2.49,3.08v10.42c0,1.35,0,3.39.09,6.1s.08,4.75.08,6.1c0,1.05-.44,1.62-1.31,1.74s-3.32.16-7.34.16a26.23,26.23,0,0,1-5-.33c-1-.23-1.52-.72-1.52-1.48,0-2.22,0-5.57,0-10s0-7.8,0-10q0-13.81-.29-22.84-.13-3.17-.22-6.33a42.79,42.79,0,0,0-.76-6.3,4.15,4.15,0,0,1-.12-.8.82.82,0,0,1,.63-.84,17,17,0,0,1,3.84-.47q3.38-.12,3.93-.21l7.64-.88c.45,0,.68.29.68.88,0,.9-.06,2.13-.17,3.68-.12,1.8-.17,3-.17,3.67q-.25,9.54-.26,15.07c0,.56.14.84.43.84,0,0,.77-.49,2.15-1.47a28.29,28.29,0,0,1,4.69-2.75,15.93,15.93,0,0,1,6.45-1.47,14.28,14.28,0,0,1,9,2.82A9.94,9.94,0,0,1,743.45,208.6Z"/><path class="cls-3" d="M791,218.44q0,9.62-5.89,15.62t-15.47,6q-9.3,0-15.29-5.91t-6-15.2q0-9.8,5.74-15.89t15.54-6.1q9.54,0,15.45,6T791,218.44Zm-13.85,0a9.07,9.07,0,0,0-2.07-5.89,6.56,6.56,0,0,0-5.36-2.56,6.83,6.83,0,0,0-5.49,2.62,9.47,9.47,0,0,0,0,11.69,7,7,0,0,0,10.94,0A9,9,0,0,0,777.1,218.44Z"/><path class="cls-3" d="M863.52,237.64c0,1-.43,1.54-1.27,1.65s-2.93.17-6.25.17a46.39,46.39,0,0,1-6.42-.25q-1.26-.26-1.26-2.07c0-1.3,0-3.23.13-5.81s.12-4.51.12-5.8q0-7.4-.17-10.51-.25-5-4.77-5a6.09,6.09,0,0,0-3.94,1.67,5.61,5.61,0,0,0-2.18,3.69q-.16,1.78-.17,10.39,0,2,.13,6c.08,2.68.13,4.7.13,6.05,0,.93-.41,1.4-1.23,1.4H823.58c-.79,0-1.18-.58-1.18-1.73,0-1.33,0-3.31.12-6s.13-4.64.13-6c0-1,0-2.62-.08-4.73s-.09-3.7-.09-4.77c0-4-1.53-6-4.6-6a7.34,7.34,0,0,0-4,1.44c-1.58,1-2.36,2.14-2.36,3.29q0,3.84,0,11.48t0,11.44a2.1,2.1,0,0,1-.25,1.31,2.42,2.42,0,0,1-1.31.34q-1.9.17-6,.17-2.65,0-6-.25a2.28,2.28,0,0,1-1.21-.3,2.48,2.48,0,0,1-.19-1.27q0-3.37,0-10.11c0-4.49,0-7.85,0-10.11a134.31,134.31,0,0,0-1-15.57,6.1,6.1,0,0,1-.08-.76,1,1,0,0,1,.59-1,14.8,14.8,0,0,1,3.51-.63c2.11-.2,3.36-.32,3.75-.38s1.4-.35,3.34-.89a13,13,0,0,1,3.33-.59c.54,0,.82,1,.85,2.94s.14,2.93.33,2.93a4.15,4.15,0,0,0,1-.59,39.72,39.72,0,0,1,6-4.05,16.1,16.1,0,0,1,7-1.56,13.65,13.65,0,0,1,6.92,1.73,9,9,0,0,1,4.44,5.44,17.78,17.78,0,0,1,6.16-5.11,16.43,16.43,0,0,1,7.64-2.06,15,15,0,0,1,9.08,2.57,9.72,9.72,0,0,1,4,8.32c0,1.49,0,3.73-.13,6.73s-.13,5.24-.13,6.73c0,1.78,0,4.44.13,8S863.52,235.87,863.52,237.64Z"/><path class="cls-3" d="M910.21,216.28c0,2.85-.92,4.46-2.75,4.86q-.47.08-8.74.93-5,.54-14.86,1.31a6,6,0,0,0,3.59,4.18,12.78,12.78,0,0,0,5.58,1.18,15.94,15.94,0,0,0,7.55-2l3.21-2c.59.29,1.58,1.72,3,4.31s2.09,4.24,2.09,4.94c0,.2-.21.52-.64,1q-5.15,5.53-16,5.53-10.05,0-16.21-5.87-6.33-6-6.33-15.91,0-9.72,5.66-15.92,5.82-6.42,15.45-6.41a18.33,18.33,0,0,1,13.76,5.91A19.63,19.63,0,0,1,910.21,216.28Zm-14.78-2.57a6.51,6.51,0,0,0-1.86-4.6,5.82,5.82,0,0,0-4.43-2,5.35,5.35,0,0,0-4.39,2.24,7.69,7.69,0,0,0-1.6,4.85c0,.76.39,1.14,1.18,1.14a73.66,73.66,0,0,0,9.71-1C895,214.24,895.43,214,895.43,213.71Z"/><path class="cls-3" d="M933.34,225a26.13,26.13,0,0,1-8.48,19.59,49.79,49.79,0,0,1-4.23,3.38c-2.33,1.68-3.84,2.53-4.51,2.53q-.63,0-3-2.7c-1.58-1.8-2.36-3-2.36-3.51,0-.31.52-1.05,1.56-2.23a21.16,21.16,0,0,0,2.91-4,13.25,13.25,0,0,0,1.56-6.34,13.52,13.52,0,0,0-.14-1.58,11.81,11.81,0,0,1-.15-1.54,2.52,2.52,0,0,1,.71-1.77q.51-.51,7-2.11a54.22,54.22,0,0,1,7.43-1.52C932.78,223.21,933.34,223.8,933.34,225Z"/><path class="cls-3" d="M559.65,305a22.07,22.07,0,0,1-5.07,14.82,17.65,17.65,0,0,1-14.1,6.33,14.37,14.37,0,0,1-10.22-3.63.81.81,0,0,0-.5-.25q-.42,0-.78,1.56c-.24,1-.53,1.62-.87,1.73s-4.49.21-12,.21c-1.77,0-2.66-.32-2.66-1,0-.08,0-.3.08-.63q.86-6.72.85-25.59,0-18-1.27-31.36l0-.47c0-.45.44-.7,1.31-.76.62,0,3.07-.24,7.35-.63q4.51-.42,7.34-.42c.54,0,.8.46.8,1.39q0,1.65-.21,4.35c-.17,2.22-.27,3.69-.29,4.39-.14,2.79-.22,6.59-.22,11.4,0,.87.23,1.31.68,1.31a.84.84,0,0,0,.63-.34,13.05,13.05,0,0,1,10-4q9.24,0,14.43,6.29Q559.65,295.52,559.65,305Zm-15.28-.46a8.58,8.58,0,0,0-2.16-5.93,7.14,7.14,0,0,0-5.61-2.43,6.94,6.94,0,0,0-5.6,2.43,9,9,0,0,0-2,6,8.82,8.82,0,0,0,2,6,7.26,7.26,0,0,0,5.74,2.4,7.09,7.09,0,0,0,5.7-2.49A8.93,8.93,0,0,0,544.37,304.56Z"/><path class="cls-3" d="M608.24,287.29c0,2.08-.1,5.21-.3,9.37s-.29,7.29-.29,9.37.07,5.07.21,9.12.21,7.08.21,9.08a1.33,1.33,0,0,1-1.06,1.43,32.74,32.74,0,0,1-6.79.43,53.57,53.57,0,0,1-6.42-.26,1.18,1.18,0,0,1-1-1c-.09-.84-.17-1.69-.26-2.53-.14-1.3-.33-1.94-.59-1.94.4,0-1,.95-4.26,2.87a17.74,17.74,0,0,1-8.82,2.87q-11.19,0-13.26-10.09a74.84,74.84,0,0,1-.93-13.6q0-9.61,1.56-15.19c.31-1.16.89-1.73,1.73-1.73,1.3,0,3.27,0,5.91,0s4.62,0,5.91,0c.88,0,1.31.37,1.31,1.1a8,8,0,0,1-.08.88,76.51,76.51,0,0,0-.89,11.66,70.35,70.35,0,0,0,.47,10c.5,3.1,2.35,4.65,5.53,4.65a6.87,6.87,0,0,0,4-1.65,4.81,4.81,0,0,0,2.26-3.42q.08-1.56.08-21.19a3.55,3.55,0,0,1,.21-1.65c.17-.28.68-.42,1.52-.42q2.07,0,6.23,0t6.23,0c.84,0,1.33.21,1.47.64A4.17,4.17,0,0,1,608.24,287.29Z"/><path class="cls-3" d="M643.45,313.3a35.27,35.27,0,0,1-.32,3.84,34.83,34.83,0,0,0-.32,3.78,3,3,0,0,1-.25,1.54,5.41,5.41,0,0,1-1.39,1,24.61,24.61,0,0,1-12.08,3q-12.2,0-12.2-9.33c0-1.85.07-4.65.21-8.38s.21-6.52.21-8.38c0-1.23-.71-1.85-2.15-1.85h-.55a4.79,4.79,0,0,1-.55,0c-1.07,0-1.6-.38-1.6-1.14,0-.45,0-1.14.11-2.07s.1-1.62.1-2.07,0-1.49-.1-2.7-.11-2.11-.11-2.7.9-.87,2.7-.93q1.51,0,1.65-.84A31.78,31.78,0,0,0,617,281c-.12-3.63-.17-5.36-.17-5.19,0-3.27.31-4.9.93-4.9a15,15,0,0,1,3.25.51,32.3,32.3,0,0,0,3.33.63c1.44.2,3.6.46,6.5.8.71.06,1.06.3,1.06.72,0,1.13-.09,2.83-.28,5.11s-.27,4-.27,5.15c0,1.38.41,2.07,1.22,2.07,1,0,2.48,0,4.48-.13s3.5-.13,4.52-.13c.62,0,.92.21.92.64,0,.64-.07,1.62-.21,2.91s-.21,2.27-.21,2.91,0,1.66,0,3,0,2.28,0,2.95-.41.89-1.23.89c-.56,0-1.5,0-2.83-.06s-2.26-.07-2.82-.07h-3.17q-.63,0-.63,1.86v3c0,1.35,0,2.35,0,3a10.51,10.51,0,0,0,.8,4.9q1.14,1.82,4.48,1.82a13.22,13.22,0,0,0,3-.49,13.69,13.69,0,0,1,2.77-.48C643.15,312.37,643.45,312.68,643.45,313.3Z"/><path class="cls-3" d="M730.07,296.11c0,4.39-.35,7.45-1.05,9.16a91.46,91.46,0,0,1-5.49,10.05q-4.47,7.56-6.16,9.37-1.14,1.23-5.58,1.23a24.46,24.46,0,0,1-4.64-.26,3.4,3.4,0,0,1-1.48-.84q-2.4-2.37-7.43-11.61-5.31,9.5-7.26,11.61-1,1.1-5.53,1.1a20.1,20.1,0,0,1-4.14-.26q-2.1-.59-7.13-9.16a101.68,101.68,0,0,1-5.87-11.23q-1.09-2.7-1.1-9.16,0-7.8.42-9.54a1.38,1.38,0,0,1,1.48-1.09c1.3,0,3.24,0,5.83.12s4.53.13,5.82.13c.65,0,1,.46,1,1.39s0,2.06-.09,3.74-.08,2.92-.08,3.73q0,5.12.25,7.56.09.93,2.26,4.75t2.68,3.82c.51,0,1.43-1.25,2.78-3.76a36.57,36.57,0,0,0,2.16-4.7q.51-1.54.51-7.62,0-1.27-.24-3.78c-.15-1.68-.23-2.92-.23-3.74s.32-1.31,1-1.31,2.35,0,4.69,0l1.73,0-.15,0c-.07,0-.09,0-.06,0h1.39c1.07,0,2.63,0,4.69.08.62.09.92.52.92,1.31,0,1.07-.07,2.7-.21,4.88s-.21,3.8-.21,4.87a26.06,26.06,0,0,0,.34,5.45,39.77,39.77,0,0,0,2,4.6q1.89,3.79,2.66,3.8c.5,0,1.45-1.28,2.82-3.84a18.7,18.7,0,0,0,2.12-4.81q.16-1.6.16-14.95c0-1,.29-1.48.85-1.48q1.93,0,5.85-.12c2.6-.09,4.55-.13,5.84-.13a1.38,1.38,0,0,1,1.44,1.18C729.92,287.75,730.07,290.94,730.07,296.11Z"/><path class="cls-3" d="M773.6,302.74q0,4.26-2.75,4.86-.47.07-8.74.92-5,.56-14.86,1.31a6,6,0,0,0,3.59,4.18,12.64,12.64,0,0,0,5.58,1.18,15.93,15.93,0,0,0,7.55-2l3.21-2q.89.42,3,4.31c1.39,2.59,2.09,4.23,2.09,4.94,0,.19-.21.52-.64,1q-5.15,5.53-16,5.53-10.05,0-16.21-5.87-6.33-6-6.33-15.91,0-9.72,5.66-15.92,5.82-6.42,15.45-6.42a18.33,18.33,0,0,1,13.76,5.91A19.65,19.65,0,0,1,773.6,302.74Zm-14.78-2.57a6.55,6.55,0,0,0-1.86-4.61,5.85,5.85,0,0,0-4.43-2,5.33,5.33,0,0,0-4.39,2.24,7.69,7.69,0,0,0-1.6,4.85c0,.76.39,1.14,1.18,1.14a73.66,73.66,0,0,0,9.71-1C758.36,300.7,758.82,300.48,758.82,300.17Z"/><path class="cls-3" d="M827.8,297.89l-2.55-.68a16.54,16.54,0,0,0-4.08-.67,8.07,8.07,0,0,0-6,2.25,8.21,8.21,0,0,0-2.24,6,7.82,7.82,0,0,0,2.45,6.1,9.12,9.12,0,0,0,6.37,2.22,11.22,11.22,0,0,0,4.18-.95,22.87,22.87,0,0,0,2.2-.95c.48,0,1.1,1.78,1.86,5.36a43.45,43.45,0,0,1,1,6.5q0,1.61-5.24,2.74a32.24,32.24,0,0,1-6.54.89,20.37,20.37,0,0,1-15.32-6.25,23,23,0,0,1,0-31.13,20.29,20.29,0,0,1,15.3-6.31,22.08,22.08,0,0,1,11.06,2.7c.73.39,1.1.77,1.1,1.14a40.94,40.94,0,0,1-1.27,5q-1.19,4.26-1.54,5.15C828.3,297.59,828.05,297.89,827.8,297.89Z"/><path class="cls-3" d="M878.25,304.56c0,2.16.13,5.39.38,9.66s.38,7.49.38,9.63c0,1.13-.49,1.73-1.48,1.81q-5.24.39-12,.38c-.53,0-.89-.8-1.07-2.42s-.4-2.44-.66-2.47a3.73,3.73,0,0,0-.88.72c-3.16,3.18-6.53,4.77-10.14,4.77a17,17,0,0,1-13.63-6.51,21.81,21.81,0,0,1-5.11-14.52q0-9.75,5.28-15.7,5.49-6.17,15-6.17a12.88,12.88,0,0,1,10.47,4.65c.11.14.21.21.29.21.25,0,.54-.68.87-2.05s.71-2.05,1.16-2.05a37.4,37.4,0,0,1,6,.89,57.06,57.06,0,0,1,6,1.44c.43.16.64.39.64.67,0,.11-.05.41-.13.89A92.82,92.82,0,0,0,878.25,304.56Zm-13.59.25a8.22,8.22,0,0,0-2.26-5.93,8.58,8.58,0,0,0-11.76,0,8.23,8.23,0,0,0-2.24,5.95,8.14,8.14,0,0,0,2.37,5.87,7.68,7.68,0,0,0,5.74,2.45,7.81,7.81,0,0,0,5.87-2.35A8.2,8.2,0,0,0,864.66,304.81Z"/><path class="cls-3" d="M928.61,324.44a1.21,1.21,0,0,1-1.18,1.31q-1.18.17-6.16.17a47.62,47.62,0,0,1-6.59-.26,1.52,1.52,0,0,1-1.26-1.73q0-2,.12-6c.09-2.67.13-4.69.13-6,0-1,0-2.59-.09-4.66s-.08-3.63-.08-4.67q0-5.77-5-5.78a7.42,7.42,0,0,0-3.85,1.43c-1.57,1.07-2.36,2.13-2.36,3.17v22.8a1.38,1.38,0,0,1-1.31,1.56c-1,.11-3,.17-6,.17a48.36,48.36,0,0,1-6.41-.26c-.87-.14-1.31-.6-1.31-1.39q0-3.28,0-9.92t0-10q0-10.51-1.64-16.51a2.79,2.79,0,0,1-.09-.63.92.92,0,0,1,.64-.93q2.65-.3,7.09-.93,6.71-1.31,7.55-1.31.46,0,.72,2.85t.72,2.85q-.46,0,4.54-2.93t8.76-2.94a15.13,15.13,0,0,1,8.95,2.54,9.45,9.45,0,0,1,4,8.1V308c0,1.83,0,4.56,0,8.21S928.61,322.61,928.61,324.44Z"/><path class="cls-3" d="M983.24,298.44c0,.67-.37,1-1.1,1-3,0-5.43-.09-7.17-.25q.12,3.17.25,8.82c0,1.6.15,4.39.38,8.36.2,3.57.29,6.36.29,8.36,0,.59-.39.92-1.18,1-1,.11-3.35.17-7.17.17a45.58,45.58,0,0,1-6.21-.26,1.56,1.56,0,0,1-1.43-1.73V300.67c0-.81-.57-1.22-1.69-1.22-.2,0-.52,0-1,0s-.76,0-1,0c-.79,0-1.2-.22-1.23-.67q-.37-3.67-.38-10.68a1.79,1.79,0,0,1,1.61-1.9q1.43-.13,2.91-.21c-.14-2.26-.21-4-.21-5.28q0-7.26,2.83-10.56,5.61-6.54,18.15-6.54c.56,0,.9.17,1,.51.23,1.26.55,3.14,1,5.61,0,.23.22,1,.55,2.37a10.59,10.59,0,0,1,.38,2.4c0,.68-1,1.12-3,1.31-2.31.26-3.73.68-4.27,1.27-.93,1-1.39,3-1.39,5.95a15.54,15.54,0,0,0,.21,2.62c.79,0,2,0,3.67-.09s2.91-.08,3.76-.08,1.27.31,1.27.93q0,2,0,6T983.24,298.44Z"/><path class="cls-3" d="M1003.17,300.25q0,11.52.08,17.69c0,.65,0,1.76.13,3.33s.12,2.55.12,3.34q0,.88-1,1.05a45.16,45.16,0,0,1-6.84.34,35.89,35.89,0,0,1-6.46-.34,1.24,1.24,0,0,1-1-1.14v-1.81c0-2.5,0-6.25.08-11.25s.08-8.73.08-11.21q0-17.73,0-16.17A134.13,134.13,0,0,0,987.25,268a3.88,3.88,0,0,1-.08-.72c0-.62.36-.93,1.09-.93h15.08c.7,0,1,.3,1,.89l0,.76Q1003.17,286.24,1003.17,300.25Z"/><path class="cls-3" d="M1052.35,295.56c0,5.46-.17,8.79-.51,10q-.63,2.12-9.24,15.28-1.35,2.07-7,9.58-6.21,8.28-7.05,8.74c-.67.42-5,.63-13,.63a4.87,4.87,0,0,1-2.45-.42c-.36-1.15-.83-2.52-1.39-4.09l-1.35-3a9.5,9.5,0,0,1-1-2.91c0-.54.24-.8.71-.8q11.75,0,11.74-5.37,0-.46-5.74-8.4-6-8.14-6.54-10.3c-.23-.81-.34-3.73-.34-8.74,0-1,0-2.54.08-4.58s.09-3.56.09-4.58c0-.73.46-1.09,1.39-1.09q2.16,0,6.52.12t6.52.13c.6,0,.89.44.89,1.31s0,2-.13,3.56-.12,2.78-.12,3.57c0,3.55,0,5.95.17,7.22q.12,1.49,2.53,5.49c1.69,2.78,2.91,4.18,3.67,4.18s1.75-1.38,3.3-4.14a20.33,20.33,0,0,0,2.32-5.28,71.85,71.85,0,0,0,.42-8.06c0-.76-.07-1.91-.21-3.46s-.21-2.72-.21-3.51c0-.53.29-.8.88-.8,1.44,0,3.58-.05,6.44-.17s5-.16,6.44-.16a1.46,1.46,0,0,1,1.48,1.09C1052.15,287.87,1052.35,290.86,1052.35,295.56Z"/><path class="cls-3" d="M1105,298.44c0,.67-.37,1-1.1,1-3,0-5.43-.09-7.17-.25q.12,3.17.25,8.82c0,1.6.15,4.39.38,8.36.2,3.57.29,6.36.29,8.36,0,.59-.39.92-1.18,1-1,.11-3.35.17-7.17.17a45.58,45.58,0,0,1-6.21-.26,1.56,1.56,0,0,1-1.43-1.73V300.67c0-.81-.57-1.22-1.69-1.22-.2,0-.52,0-1,0s-.76,0-1,0c-.79,0-1.2-.22-1.23-.67q-.37-3.67-.38-10.68a1.79,1.79,0,0,1,1.61-1.9q1.43-.13,2.91-.21c-.14-2.26-.21-4-.21-5.28q0-7.26,2.83-10.56,5.61-6.54,18.15-6.54c.56,0,.9.17,1,.51.23,1.26.55,3.14,1,5.61,0,.23.22,1,.55,2.37a10.59,10.59,0,0,1,.38,2.4c0,.68-1,1.12-3,1.31-2.31.26-3.73.68-4.27,1.27-.93,1-1.39,3-1.39,5.95a15.54,15.54,0,0,0,.21,2.62c.79,0,2,0,3.67-.09s2.91-.08,3.76-.08,1.27.31,1.27.93q0,2,0,6T1105,298.44Z"/><path class="cls-3" d="M1137.54,299.36c0,1.1-.61,1.65-1.82,1.65-.53,0-1.31,0-2.34-.11s-1.79-.1-2.3-.1c-2.34,0-3.93.37-4.77,1.1s-1.27,2.21-1.27,4.43c0,1.21,0,3.05.07,5.51s.06,4.3.06,5.51c0,.81.06,2,.17,3.65s.17,2.82.17,3.61-.47,1.05-1.39,1.14c-1.36.11-3.42.17-6.21.17a63.75,63.75,0,0,1-6.42-.26c-.93-.11-1.39-.57-1.39-1.39q0-3.37,0-10.11t0-10.11a61.41,61.41,0,0,0-1.81-16.34,2.79,2.79,0,0,1-.09-.63.85.85,0,0,1,.64-.85c1.54-.16,3.81-.47,6.79-.92,4.45-.88,6.74-1.31,6.88-1.31.51,0,.83.88,1,2.66s.39,2.66.76,2.66c-.4,0,.76-.74,3.46-2.22a16.23,16.23,0,0,1,7.81-2.22c1.57,0,2.36.34,2.36,1a32.56,32.56,0,0,1-.25,3.46c-.17,1.6-.27,2.76-.3,3.46s0,1.9,0,3.25C1137.51,297.73,1137.54,298.83,1137.54,299.36Z"/><path class="cls-3" d="M1183.09,304.89q0,9.63-5.89,15.62t-15.47,6q-9.29,0-15.28-5.91t-6-15.2q0-9.79,5.74-15.89t15.54-6.1q9.54,0,15.45,6T1183.09,304.89Zm-13.85,0a9.06,9.06,0,0,0-2.07-5.88,6.54,6.54,0,0,0-5.36-2.56,6.77,6.77,0,0,0-5.48,2.62,9.43,9.43,0,0,0,0,11.69,7,7,0,0,0,10.93,0A9,9,0,0,0,1169.24,304.89Z"/><path class="cls-3" d="M1255.66,324.1c0,1-.42,1.54-1.27,1.65s-2.92.17-6.24.17a45.51,45.51,0,0,1-6.42-.26c-.85-.16-1.27-.85-1.27-2.06s0-3.23.13-5.81.12-4.51.12-5.8c0-4.93,0-8.43-.16-10.52-.17-3.34-1.76-5-4.77-5a6.11,6.11,0,0,0-4,1.67,5.61,5.61,0,0,0-2.18,3.69c-.11,1.18-.16,4.65-.16,10.39,0,1.32,0,3.33.12,6s.13,4.71.13,6.06c0,.93-.41,1.39-1.23,1.39h-12.79c-.78,0-1.18-.57-1.18-1.73q0-2,.13-5.95t.12-6c0-1,0-2.62-.08-4.73s-.08-3.7-.08-4.77q0-6-4.61-6a7.37,7.37,0,0,0-4,1.44c-1.57,1-2.36,2.14-2.36,3.29q0,3.84,0,11.48t0,11.44a2.1,2.1,0,0,1-.25,1.31,2.38,2.38,0,0,1-1.31.34q-1.89.17-6,.17-2.67,0-6-.26a2.14,2.14,0,0,1-1.2-.29,2.37,2.37,0,0,1-.19-1.27q0-3.37,0-10.11t0-10.11a136.55,136.55,0,0,0-1-15.58,4.67,4.67,0,0,1-.09-.76,1,1,0,0,1,.6-1,14.57,14.57,0,0,1,3.5-.63c2.11-.2,3.36-.32,3.76-.38s1.39-.35,3.33-.89a13,13,0,0,1,3.34-.59q.79,0,.84,2.94c0,2,.14,2.93.34,2.93a4.33,4.33,0,0,0,1-.59,39.72,39.72,0,0,1,6-4.05,16.11,16.11,0,0,1,7-1.57,13.72,13.72,0,0,1,6.93,1.74,9,9,0,0,1,4.43,5.44,17.77,17.77,0,0,1,6.16-5.11,16.37,16.37,0,0,1,7.65-2.07,14.9,14.9,0,0,1,9.07,2.58,9.68,9.68,0,0,1,4,8.32q0,2.24-.13,6.73t-.12,6.73c0,1.78,0,4.44.12,8S1255.66,322.33,1255.66,324.1Z"/><path class="cls-3" d="M1327.43,295.06l-.09,29.13c0,1-.39,1.53-1.18,1.64s-3,.17-6.16.17a40.46,40.46,0,0,1-6.46-.34,1.61,1.61,0,0,1-1.4-1.81c0-2.42,0-6.07.13-10.93s.13-8.52.13-10.94q0-4.94-5-4.94a8.1,8.1,0,0,0-4,1.35c-1.66,1-2.49,2-2.49,3.08V311.9c0,1.35,0,3.39.08,6.1s.08,4.75.08,6.1c0,1-.43,1.62-1.3,1.73s-3.33.17-7.35.17a25.21,25.21,0,0,1-5-.34c-1-.22-1.52-.71-1.52-1.47q0-3.35,0-10t0-10q0-13.8-.29-22.83c-.09-2.11-.16-4.23-.21-6.34a44,44,0,0,0-.76-6.29,3.63,3.63,0,0,1-.13-.8.82.82,0,0,1,.63-.84,16.48,16.48,0,0,1,3.84-.47q3.39-.12,3.93-.21l7.64-.89c.45,0,.68.3.68.89,0,.9-.06,2.13-.17,3.67-.11,1.81-.17,3-.17,3.68q-.26,9.54-.25,15.07,0,.84.42.84s.77-.49,2.15-1.48a29.33,29.33,0,0,1,4.69-2.74,16,16,0,0,1,6.46-1.48,14.28,14.28,0,0,1,9,2.83A10,10,0,0,1,1327.43,295.06Z"/><path class="cls-3" d="M1374.92,304.89q0,9.63-5.89,15.62t-15.47,6q-9.29,0-15.28-5.91t-6-15.2q0-9.79,5.74-15.89t15.54-6.1q9.54,0,15.45,6T1374.92,304.89Zm-13.85,0A9.06,9.06,0,0,0,1359,299a6.56,6.56,0,0,0-5.36-2.56,6.77,6.77,0,0,0-5.48,2.62,9.43,9.43,0,0,0,0,11.69,7,7,0,0,0,10.93,0A9,9,0,0,0,1361.07,304.89Z"/><path class="cls-3" d="M1447.49,324.1c0,1-.42,1.54-1.27,1.65s-2.93.17-6.25.17a45.43,45.43,0,0,1-6.41-.26c-.85-.16-1.27-.85-1.27-2.06s0-3.23.13-5.81.12-4.51.12-5.8c0-4.93,0-8.43-.16-10.52-.17-3.34-1.76-5-4.77-5a6.11,6.11,0,0,0-3.95,1.67,5.61,5.61,0,0,0-2.18,3.69c-.11,1.18-.16,4.65-.16,10.39,0,1.32,0,3.33.12,6s.13,4.71.13,6.06c0,.93-.41,1.39-1.23,1.39h-12.79c-.79,0-1.18-.57-1.18-1.73q0-2,.13-5.95t.12-6c0-1,0-2.62-.08-4.73s-.08-3.7-.08-4.77q0-6-4.61-6a7.34,7.34,0,0,0-4,1.44c-1.57,1-2.36,2.14-2.36,3.29q0,3.84,0,11.48t0,11.44a2.1,2.1,0,0,1-.25,1.31,2.42,2.42,0,0,1-1.31.34c-1.27.11-3.26.17-6,.17q-2.67,0-6-.26a2.14,2.14,0,0,1-1.2-.29,2.37,2.37,0,0,1-.19-1.27q0-3.37,0-10.11t0-10.11a136.55,136.55,0,0,0-1-15.58,4.67,4.67,0,0,1-.09-.76,1,1,0,0,1,.59-1,14.8,14.8,0,0,1,3.51-.63c2.11-.2,3.36-.32,3.76-.38s1.39-.35,3.33-.89a13,13,0,0,1,3.34-.59q.79,0,.84,2.94c0,2,.14,2.93.34,2.93a4.33,4.33,0,0,0,1-.59,39.72,39.72,0,0,1,6-4.05,16.11,16.11,0,0,1,7-1.57,13.72,13.72,0,0,1,6.93,1.74,9,9,0,0,1,4.43,5.44,17.77,17.77,0,0,1,6.16-5.11,16.36,16.36,0,0,1,7.64-2.07,14.94,14.94,0,0,1,9.08,2.58,9.68,9.68,0,0,1,4,8.32q0,2.24-.13,6.73t-.12,6.73c0,1.78,0,4.44.12,8S1447.49,322.33,1447.49,324.1Z"/><path class="cls-3" d="M1494.18,302.74c0,2.84-.92,4.46-2.74,4.86-.31,0-3.23.36-8.74.92q-5,.56-14.86,1.31a6,6,0,0,0,3.59,4.18,12.62,12.62,0,0,0,5.57,1.18,15.93,15.93,0,0,0,7.55-2l3.21-2c.59.28,1.59,1.72,3,4.31s2.09,4.23,2.09,4.94c0,.19-.21.52-.63,1q-5.16,5.53-16,5.53-10,0-16.21-5.87-6.35-6-6.34-15.91,0-9.72,5.66-15.92,5.82-6.42,15.45-6.42a18.33,18.33,0,0,1,13.76,5.91A19.65,19.65,0,0,1,1494.18,302.74Zm-14.78-2.57a6.54,6.54,0,0,0-1.85-4.61,5.88,5.88,0,0,0-4.44-2,5.35,5.35,0,0,0-4.39,2.24,7.69,7.69,0,0,0-1.6,4.85c0,.76.39,1.14,1.18,1.14a73.66,73.66,0,0,0,9.71-1C1478.94,300.7,1479.4,300.48,1479.4,300.17Z"/><path class="cls-3" d="M1517.27,316.42a9.8,9.8,0,0,1-2.89,7.13,9.47,9.47,0,0,1-7,3,9.36,9.36,0,0,1-7-3,10.22,10.22,0,0,1,0-14.2,9.8,9.8,0,0,1,14,0A9.76,9.76,0,0,1,1517.27,316.42Z"/></svg>