<svg id="レイヤー_1" data-name="レイヤー 1" xmlns="http://www.w3.org/2000/svg" viewBox="0 0 1024 1024"><defs><style>.cls-1{fill:#e60012;}.cls-2{fill:#008664;}.cls-3{fill:#fff;}.cls-4{fill:#003296;}</style></defs><circle class="cls-1" cx="512" cy="512" r="400"/><path class="cls-2" d="M937,351.48c-7.25-19.77-27.16-33.78-56.81-42.16,8.86,6.57,15.15,14.44,18.52,23.65,26.12,71.23-132.08,194.74-353.36,275.86S123.57,698,97.46,626.73a47.55,47.55,0,0,1-2.76-18.59c-10.65,20.2-13.65,38.86-7.74,55,27.71,75.58,240.46,67.08,475.21-19S964.74,427.05,937,351.48Z"/><path class="cls-3" d="M880.23,309.32c29.65,8.38,49.56,22.39,56.81,42.16,27.7,75.57-140.13,206.6-374.87,292.66C434.82,690.82,314,714.68,225.6,714.68c-74.53,0-126-17-138.64-51.56-5.91-16.12-2.91-34.78,7.73-55a47.74,47.74,0,0,0,2.77,18.59c12,32.6,60.41,48.6,130.68,48.6,83.3,0,197.23-22.49,317.25-66.5C766.67,527.71,924.87,404.2,898.75,333c-3.37-9.21-9.66-17.08-18.52-23.65m0-10a10,10,0,0,0-6,18c7.39,5.48,12.47,11.89,15.1,19.06,5.25,14.32,1.17,32.13-12.12,52.92-13.94,21.8-37,45.35-68.56,70C742.75,510.79,648,560.56,542,599.45c-114.21,41.87-228.59,65.88-313.81,65.88-34.49,0-62.69-3.86-83.82-11.48-20.09-7.25-32.7-17.53-37.47-30.56a37.72,37.72,0,0,1-2.16-14.72,10,10,0,0,0-7.39-10.08,9.71,9.71,0,0,0-2.61-.35,10,10,0,0,0-8.84,5.34C73.56,626.8,70.77,648,77.57,666.57c7.27,19.81,24.8,34.85,52.12,44.71,24.67,8.89,56.94,13.4,95.91,13.4,45.53,0,97.91-6,155.69-18,59.59-12.3,121.6-30.19,184.32-53.18,114.48-42,217-95.87,288.56-151.77,35.33-27.58,61.37-54.29,77.42-79.39,17.75-27.76,22.74-52.77,14.84-74.33-8.25-22.51-29.61-38.77-63.48-48.34a9.86,9.86,0,0,0-2.72-.38Z"/><path class="cls-3" d="M318.27,303.52l29.82,74.71,30.23-74.71h17.81L347.74,419.43,300.47,303.52Z"/><path class="cls-1" d="M396.13,303.52,347.74,419.43,300.47,303.52h17.8l29.82,74.71,30.23-74.71h17.81m0-10H378.32a10,10,0,0,0-9.27,6.25l-20.9,51.65-20.59-51.6a10,10,0,0,0-9.29-6.3h-17.8a10,10,0,0,0-9.26,13.78l47.27,115.91a10,10,0,0,0,9.22,6.22h0a10,10,0,0,0,9.23-6.15l48.39-115.91a10,10,0,0,0-9.23-13.85Z"/><path class="cls-3" d="M404.16,315a10.24,10.24,0,0,1,10.19-10.12,9.89,9.89,0,0,1,7.26,3,9.68,9.68,0,0,1,3,7.19,9.94,9.94,0,0,1-3,7.27,9.65,9.65,0,0,1-7.19,3,9.89,9.89,0,0,1-7.26-3A10,10,0,0,1,404.16,315Zm18.08,28.28v68H406.53v-68Z"/><path class="cls-1" d="M414.35,304.92a9.89,9.89,0,0,1,7.26,3,9.68,9.68,0,0,1,3,7.19,9.94,9.94,0,0,1-3,7.27,9.65,9.65,0,0,1-7.19,3,9.89,9.89,0,0,1-7.26-3,10,10,0,0,1-3-7.34,10.24,10.24,0,0,1,10.19-10.12m7.89,38.4v68H406.53v-68h15.71m-7.89-48.4a20.22,20.22,0,0,0-14.26,34.53,20.26,20.26,0,0,0,5.46,3.92,10,10,0,0,0-9,9.95v68a10,10,0,0,0,10,10h15.71a10,10,0,0,0,10-10v-68a10,10,0,0,0-9-9.95,19.63,19.63,0,0,0,5.45-4,19.83,19.83,0,0,0,5.9-14.29,19.62,19.62,0,0,0-6-14.3,19.86,19.86,0,0,0-14.29-5.89Z"/><path class="cls-3" d="M442.14,343.32h15.71v6.08a30.15,30.15,0,0,1,7.68-6.22,17.66,17.66,0,0,1,8.1-1.74,25.4,25.4,0,0,1,13,4.05l-7.19,14.38a15,15,0,0,0-8.73-3.21q-12.85,0-12.85,19.41v35.26H442.14Z"/><path class="cls-1" d="M473.63,341.44a25.4,25.4,0,0,1,13,4.05l-7.19,14.38a15,15,0,0,0-8.73-3.21q-12.85,0-12.85,19.41v35.26H442.14v-68h15.71v6.08a30.15,30.15,0,0,1,7.68-6.22,17.66,17.66,0,0,1,8.1-1.74m0-10A27.84,27.84,0,0,0,461.51,334a10.09,10.09,0,0,0-3.66-.69H442.14a10,10,0,0,0-10,10v68a10,10,0,0,0,10,10h15.71a10,10,0,0,0,10-10V376.07c0-7.49,1.71-9.25,1.74-9.28h0a3.23,3.23,0,0,1,1.11-.13,6.12,6.12,0,0,1,2.89,1.33,10,10,0,0,0,5.84,1.88,10.21,10.21,0,0,0,2.39-.29,10,10,0,0,0,6.55-5.24L495.56,350a10,10,0,0,0-3.81-13.06,35.34,35.34,0,0,0-18.12-5.46Z"/><path class="cls-3" d="M511.83,358v53.34H496.12V358h-6.71V343.32h6.71V318.4h15.71v24.92h12.22V358Z"/><path class="cls-1" d="M511.83,318.4v24.92h12.22V358H511.83v53.34H496.12V358h-6.71V343.32h6.71V318.4h15.71m0-10H496.12a10,10,0,0,0-10,10v15.48a10,10,0,0,0-6.71,9.44V358a10,10,0,0,0,6.71,9.44v43.9a10,10,0,0,0,10,10h15.71a10,10,0,0,0,10-10V368h2.22a10,10,0,0,0,10-10V343.32a10,10,0,0,0-10-10h-2.22V318.4a10,10,0,0,0-10-10Z"/><path class="cls-3" d="M550.44,343.32v39q0,16.9,13.34,16.9t13.33-16.9v-39h15.71V382.7a43.86,43.86,0,0,1-2,14.11,23.67,23.67,0,0,1-6.78,9.56q-7.95,6.92-20.24,6.92t-20.18-6.92a24.05,24.05,0,0,1-6.92-9.56q-1.95-4.76-1.95-14.11V343.32Z"/><path class="cls-1" d="M592.82,343.32V382.7a43.86,43.86,0,0,1-2,14.11,23.67,23.67,0,0,1-6.78,9.56q-7.95,6.92-20.24,6.92t-20.18-6.92a24.05,24.05,0,0,1-6.92-9.56q-1.95-4.76-1.95-14.11V343.32h15.71v39q0,16.9,13.34,16.9t13.33-16.9v-39h15.71m0-10H577.11a10,10,0,0,0-10,10v39c0,4.84-1.06,6.33-1.18,6.48a5.74,5.74,0,0,1-4.31,0c-.12-.15-1.18-1.64-1.18-6.48v-39a10,10,0,0,0-10-10H534.73a10,10,0,0,0-10,10V382.7c0,7.56.87,13.38,2.66,17.79A34,34,0,0,0,537,413.91c7.16,6.23,16.16,9.38,26.75,9.38s19.65-3.15,26.8-9.37l.07-.05a33.75,33.75,0,0,0,9.53-13.6,2.25,2.25,0,0,0,.08-.24,53.85,53.85,0,0,0,2.56-17.33V343.32a10,10,0,0,0-10-10Z"/><path class="cls-3" d="M662.79,343.32h15.78v68H662.79v-7.12q-9.7,9.07-20.88,9.08a30.05,30.05,0,0,1-23.32-10.2q-9.15-10.39-9.15-26,0-15.3,9.15-25.49a29.49,29.49,0,0,1,22.9-10.19q11.87,0,21.3,9.77Zm-37.29,33.8q0,9.76,5.24,15.92a17.15,17.15,0,0,0,13.54,6.21,18.05,18.05,0,0,0,14.11-6q5.37-6.22,5.37-15.78t-5.37-15.78a17.79,17.79,0,0,0-14-6.08,17.35,17.35,0,0,0-13.54,6.15A22.61,22.61,0,0,0,625.5,377.12Z"/><path class="cls-1" d="M641.49,341.44q11.87,0,21.3,9.77v-7.89h15.78v68H662.79v-7.12q-9.7,9.07-20.88,9.08a30.05,30.05,0,0,1-23.32-10.2q-9.15-10.39-9.15-26,0-15.3,9.15-25.49a29.49,29.49,0,0,1,22.9-10.19m2.79,57.81a18.05,18.05,0,0,0,14.11-6q5.37-6.22,5.37-15.78t-5.37-15.78a17.79,17.79,0,0,0-14-6.08,17.35,17.35,0,0,0-13.54,6.15,22.61,22.61,0,0,0-5.38,15.36q0,9.76,5.24,15.92a17.15,17.15,0,0,0,13.54,6.21m-2.79-67.81A39.24,39.24,0,0,0,611.14,345c-7.76,8.66-11.7,19.48-11.7,32.17s3.92,23.79,11.64,32.58l.09.1c8.09,8.95,18.43,13.49,30.74,13.49a36.81,36.81,0,0,0,15.61-3.46,9.94,9.94,0,0,0,5.27,1.5h15.78a10,10,0,0,0,10-10v-68a10,10,0,0,0-10-10H662.79a9.88,9.88,0,0,0-5.48,1.64,36.59,36.59,0,0,0-15.82-3.52Zm-3.09,36.9a7.44,7.44,0,0,1,6-2.73,7.87,7.87,0,0,1,6.44,2.66c1.95,2.28,2.9,5.29,2.9,9.2s-.94,6.89-2.88,9.17c-1.18,1.3-2.91,2.61-6.6,2.61a7.13,7.13,0,0,1-5.95-2.73c-1.91-2.24-2.83-5.32-2.83-9.4a12.74,12.74,0,0,1,2.9-8.78Z"/><path class="cls-3" d="M714.11,293.4V411.33H698.4V293.4Z"/><path class="cls-1" d="M714.11,293.4V411.33H698.4V293.4h15.71m0-10H698.4a10,10,0,0,0-10,10V411.33a10,10,0,0,0,10,10h15.71a10,10,0,0,0,10-10V293.4a10,10,0,0,0-10-10Z"/><path class="cls-3" d="M347.35,528.15H301.2l-12,26.18H271.67L325,439.75l51.46,114.58h-17.8Zm-6.63-15.29-16-36.66L308,512.86Z"/><path class="cls-1" d="M325,439.75l51.46,114.58h-17.8l-11.32-26.18H301.2l-12,26.18H271.67L325,439.75m-17,73.11h32.75l-16-36.66L308,512.86m17-83.11a10,10,0,0,0-9.06,5.78L262.6,550.11a10,10,0,0,0,9.07,14.22h17.52a10,10,0,0,0,9.09-5.83l9.34-20.35h33.16l8.71,20.15a10,10,0,0,0,9.18,6h17.8a10,10,0,0,0,9.12-14.1L334.13,435.65a10,10,0,0,0-9.05-5.9Zm-1.47,73.11,1-2.14.93,2.14Z"/><path class="cls-3" d="M384.57,458a10.24,10.24,0,0,1,10.2-10.12,9.91,9.91,0,0,1,7.26,3,9.67,9.67,0,0,1,3,7.19,9.93,9.93,0,0,1-3,7.27,9.69,9.69,0,0,1-7.2,3A10.24,10.24,0,0,1,384.57,458Zm18.09,28.28v68H387v-68Z"/><path class="cls-1" d="M394.77,447.92a9.91,9.91,0,0,1,7.26,3,9.67,9.67,0,0,1,3,7.19,9.93,9.93,0,0,1-3,7.27,9.69,9.69,0,0,1-7.2,3A10.24,10.24,0,0,1,384.57,458a10.24,10.24,0,0,1,10.2-10.12m7.89,38.4v68H387v-68h15.71m-7.89-48.4a20.22,20.22,0,0,0-14.27,34.53,20.26,20.26,0,0,0,5.46,3.92,10,10,0,0,0-9,9.95v68a10,10,0,0,0,10,10h15.71a10,10,0,0,0,10-10v-68a10,10,0,0,0-9-9.95A20.48,20.48,0,0,0,415,458.11a19.61,19.61,0,0,0-6-14.3,19.9,19.9,0,0,0-14.29-5.89Z"/><path class="cls-3" d="M422.56,486.32h15.71v6.08a29.81,29.81,0,0,1,7.68-6.22,17.66,17.66,0,0,1,8.1-1.74,25.34,25.34,0,0,1,13,4.05l-7.19,14.38a15,15,0,0,0-8.73-3.21q-12.84,0-12.84,19.41v35.26H422.56Z"/><path class="cls-1" d="M454.05,484.44a25.34,25.34,0,0,1,13,4.05l-7.19,14.38a15,15,0,0,0-8.73-3.21q-12.84,0-12.84,19.41v35.26H422.56v-68h15.71v6.08a29.81,29.81,0,0,1,7.68-6.22,17.66,17.66,0,0,1,8.1-1.74m0-10A27.81,27.81,0,0,0,441.93,477a10.13,10.13,0,0,0-3.66-.69H422.56a10,10,0,0,0-10,10v68a10,10,0,0,0,10,10h15.71a10,10,0,0,0,10-10V519.07c0-7.49,1.7-9.24,1.73-9.27h0a3.09,3.09,0,0,1,1.11-.14A6.14,6.14,0,0,1,454,511a9.93,9.93,0,0,0,5.83,1.88,10.3,10.3,0,0,0,2.4-.29,10,10,0,0,0,6.55-5.24L476,493a10,10,0,0,0-3.82-13.06,35.3,35.3,0,0,0-18.11-5.46Z"/><path class="cls-3" d="M491.75,436.4V554.33H476V436.4Z"/><path class="cls-1" d="M491.75,436.4V554.33H476V436.4h15.71m0-10H476a10,10,0,0,0-10,10V554.33a10,10,0,0,0,10,10h15.71a10,10,0,0,0,10-10V436.4a10,10,0,0,0-10-10Z"/><path class="cls-3" d="M509.28,458a10.24,10.24,0,0,1,10.19-10.12,9.89,9.89,0,0,1,7.26,3,9.68,9.68,0,0,1,3,7.19,9.94,9.94,0,0,1-3,7.27,9.65,9.65,0,0,1-7.19,3,9.89,9.89,0,0,1-7.26-3A10,10,0,0,1,509.28,458Zm18.08,28.28v68H511.65v-68Z"/><path class="cls-1" d="M519.47,447.92a9.89,9.89,0,0,1,7.26,3,9.68,9.68,0,0,1,3,7.19,9.94,9.94,0,0,1-3,7.27,9.65,9.65,0,0,1-7.19,3,9.89,9.89,0,0,1-7.26-3,10,10,0,0,1-3-7.34,10.24,10.24,0,0,1,10.19-10.12m7.89,38.4v68H511.65v-68h15.71m-7.89-48.4a20.22,20.22,0,0,0-14.26,34.53,20.26,20.26,0,0,0,5.46,3.92,10,10,0,0,0-9,9.95v68a10,10,0,0,0,10,10h15.71a10,10,0,0,0,10-10v-68a10,10,0,0,0-9-9.95,20.48,20.48,0,0,0,11.35-18.26,19.62,19.62,0,0,0-6-14.3,19.86,19.86,0,0,0-14.29-5.89Z"/><path class="cls-3" d="M547.26,486.32H563v6.29q8.24-8.17,18.58-8.17,11.86,0,18.5,7.47,5.71,6.36,5.72,20.74v41.68H590.06v-38q0-10.07-2.79-13.9t-9.91-3.91q-7.83,0-11.11,5.17T563,521.51v32.82H547.26Z"/><path class="cls-1" d="M581.62,484.44q11.86,0,18.5,7.47,5.71,6.36,5.72,20.74v41.68H590.06v-38q0-10.07-2.79-13.9t-9.91-3.91q-7.83,0-11.11,5.17T563,521.51v32.82H547.26v-68H563v6.29q8.24-8.17,18.58-8.17m0-10a34,34,0,0,0-14,3,10,10,0,0,0-4.53-1.08H547.26a10,10,0,0,0-10,10v68a10,10,0,0,0,10,10H563a10,10,0,0,0,10-10V521.51c0-9.54,1.5-12.2,1.67-12.47a4.58,4.58,0,0,1,2.65-.5,9.53,9.53,0,0,1,1.92.16,26.27,26.27,0,0,1,.78,7.65v38a10,10,0,0,0,10,10h15.78a10,10,0,0,0,10-10V512.65c0-12.25-2.7-21.21-8.27-27.41-6.29-7.07-15.26-10.8-26-10.8Z"/><path class="cls-3" d="M687.61,524H638.87q.63,8.37,5.45,13.33a16.6,16.6,0,0,0,12.36,4.89,16.07,16.07,0,0,0,9.7-2.79q3.78-2.79,8.59-10.34l13.27,7.41a53,53,0,0,1-6.5,9,34.23,34.23,0,0,1-7.33,6.14,29.44,29.44,0,0,1-8.45,3.53,41.34,41.34,0,0,1-9.84,1.12q-15.23,0-24.44-9.78t-9.22-26.11q0-16.14,8.94-26.12t23.88-9.84q15,0,23.74,9.56t8.66,26.33Zm-16.13-12.85q-3.29-12.57-15.85-12.57a16.36,16.36,0,0,0-5.38.87,15.46,15.46,0,0,0-4.57,2.52,15.88,15.88,0,0,0-3.53,3.94,18.33,18.33,0,0,0-2.23,5.24Z"/><path class="cls-1" d="M655.28,484.44q15,0,23.74,9.56t8.66,26.33l-.07,3.7H638.87q.63,8.37,5.45,13.33a16.6,16.6,0,0,0,12.36,4.89,16.07,16.07,0,0,0,9.7-2.79q3.78-2.79,8.59-10.34l13.27,7.41a53,53,0,0,1-6.5,9,34.23,34.23,0,0,1-7.33,6.14,29.44,29.44,0,0,1-8.45,3.53,41.34,41.34,0,0,1-9.84,1.12q-15.23,0-24.44-9.78t-9.22-26.11q0-16.14,8.94-26.12t23.88-9.84m-15.36,26.74h31.56q-3.29-12.57-15.85-12.57a16.36,16.36,0,0,0-5.38.87,15.46,15.46,0,0,0-4.57,2.52,15.88,15.88,0,0,0-3.53,3.94,18.33,18.33,0,0,0-2.23,5.24m15.36-36.74c-12.79,0-23.31,4.4-31.26,13.09l-.07.08c-7.62,8.52-11.49,19.55-11.49,32.79,0,13.41,4,24.5,11.92,32.94,8.1,8.6,18.77,12.95,31.74,12.95a51.52,51.52,0,0,0,12.23-1.41,39.56,39.56,0,0,0,11.31-4.72,44.8,44.8,0,0,0,9.46-7.91,63.26,63.26,0,0,0,7.74-10.66,10,10,0,0,0-1.15-11.7,10,10,0,0,0,1.9-5.68l.07-3.7v-.18c0-13.74-3.79-24.86-11.27-33.06-7.77-8.52-18.24-12.83-31.13-12.83Z"/><path class="cls-3" d="M744.31,497.91l-13,6.92q-3.08-6.29-7.61-6.29A5.23,5.23,0,0,0,720,500a4.79,4.79,0,0,0-1.54,3.67q0,3.92,9.08,7.75,12.5,5.37,16.83,9.91t4.32,12.22A21.4,21.4,0,0,1,741.44,550a24.71,24.71,0,0,1-17,6.29q-17.11,0-24.23-16.69l13.4-6.22a29.19,29.19,0,0,0,4.26,6.22,9.71,9.71,0,0,0,6.84,2.65q8,0,8-7.26,0-4.18-6.15-7.82c-1.58-.79-3.17-1.56-4.75-2.3l-4.82-2.31q-6.84-3.34-9.63-6.7a16.49,16.49,0,0,1-3.56-11,19.41,19.41,0,0,1,6.07-14.67,21.33,21.33,0,0,1,15.08-5.79Q738,484.44,744.31,497.91Z"/><path class="cls-1" d="M724.89,484.44q13.07,0,19.42,13.47l-13,6.92q-3.08-6.29-7.61-6.29A5.23,5.23,0,0,0,720,500a4.79,4.79,0,0,0-1.54,3.67q0,3.92,9.08,7.75,12.5,5.37,16.83,9.91t4.32,12.22A21.4,21.4,0,0,1,741.44,550a24.71,24.71,0,0,1-17,6.29q-17.11,0-24.23-16.69l13.4-6.22a29.19,29.19,0,0,0,4.26,6.22,9.71,9.71,0,0,0,6.84,2.65q8,0,8-7.26,0-4.18-6.15-7.82c-1.58-.79-3.17-1.56-4.75-2.3l-4.82-2.31q-6.84-3.34-9.63-6.7a16.49,16.49,0,0,1-3.56-11,19.41,19.41,0,0,1,6.07-14.67,21.33,21.33,0,0,1,15.08-5.79m0-10a31.12,31.12,0,0,0-21.9,8.48l-.08.08a29.51,29.51,0,0,0-9.17,21.9c0,6.85,2,12.7,5.89,17.37a27,27,0,0,0,4.7,4.38L696,530.53a10,10,0,0,0-5,13c6.35,14.89,17.91,22.77,33.43,22.77a34.52,34.52,0,0,0,23.68-8.82l.1-.08a31.56,31.56,0,0,0,10.51-23.87c0-7.75-2.38-14.18-7.08-19.11a36.68,36.68,0,0,0-6.83-5.43l4.21-2.24a10,10,0,0,0,4.35-13.09c-7.49-15.88-19.61-19.21-28.46-19.21Z"/><path class="cls-3" d="M360.59,589.52v69.76q0,12.5-1.75,18.64a28,28,0,0,1-5.93,11.8q-8.18,9.57-21.65,9.57A36.45,36.45,0,0,1,312.2,694l8-13.9q5.93,4,11.1,4,7.26,0,10.05-5.51,2.94-5.52,2.94-19.27V589.52Z"/><path class="cls-1" d="M360.59,589.52v69.76q0,12.5-1.75,18.64a28,28,0,0,1-5.93,11.8q-8.18,9.57-21.65,9.57A36.45,36.45,0,0,1,312.2,694l8-13.9q5.93,4,11.1,4,7.26,0,10.05-5.51,2.94-5.52,2.94-19.27V589.52h16.34m0-10H344.25a10,10,0,0,0-10,10v69.76c0,10.72-1.47,14-1.76,14.57l-.06.11a5.15,5.15,0,0,1-1.17.1c-.79,0-2.57-.29-5.53-2.28a10.13,10.13,0,0,0-5.57-1.7,9.8,9.8,0,0,0-2.28.27,10,10,0,0,0-6.4,4.76l-8,13.9a10,10,0,0,0,3.54,13.55,46.56,46.56,0,0,0,24.2,6.73c11.82,0,21.92-4.51,29.22-13a37.92,37.92,0,0,0,8-15.76c1.41-5,2.09-12,2.09-21.21V589.52a10,10,0,0,0-10-10Z"/><path class="cls-3" d="M433.55,629.32h15.78v68H433.55v-7.12q-9.71,9.07-20.88,9.08a30.08,30.08,0,0,1-23.32-10.2q-9.15-10.4-9.14-26,0-15.3,9.14-25.49a29.51,29.51,0,0,1,22.91-10.19q11.87,0,21.29,9.77Zm-37.28,33.8q0,9.76,5.23,15.92a17.17,17.17,0,0,0,13.55,6.21,18,18,0,0,0,14.1-6q5.39-6.22,5.38-15.78t-5.38-15.78a17.77,17.77,0,0,0-14-6.08,17.37,17.37,0,0,0-13.55,6.15A22.66,22.66,0,0,0,396.27,663.12Z"/><path class="cls-1" d="M412.26,627.44q11.87,0,21.29,9.77v-7.89h15.78v68H433.55v-7.12q-9.71,9.07-20.88,9.08a30.08,30.08,0,0,1-23.32-10.2q-9.15-10.4-9.14-26,0-15.3,9.14-25.49a29.51,29.51,0,0,1,22.91-10.19m2.79,57.81a18,18,0,0,0,14.1-6q5.39-6.22,5.38-15.78t-5.38-15.78a17.77,17.77,0,0,0-14-6.08,17.37,17.37,0,0,0-13.55,6.15,22.66,22.66,0,0,0-5.37,15.36q0,9.76,5.23,15.92a17.17,17.17,0,0,0,13.55,6.21m-2.79-67.81A39.24,39.24,0,0,0,381.91,631c-7.77,8.66-11.7,19.48-11.7,32.17s3.91,23.79,11.63,32.58l.1.1c8.09,9,18.43,13.49,30.73,13.49a36.78,36.78,0,0,0,15.61-3.46,10,10,0,0,0,5.27,1.5h15.78a10,10,0,0,0,10-10v-68a10,10,0,0,0-10-10H433.55a9.92,9.92,0,0,0-5.48,1.64,36.54,36.54,0,0,0-15.81-3.52Zm-3.09,36.9a7.44,7.44,0,0,1,6-2.73,7.87,7.87,0,0,1,6.44,2.66c1.95,2.28,2.9,5.29,2.9,9.2s-.94,6.89-2.88,9.17c-1.19,1.3-2.91,2.61-6.6,2.61a7.15,7.15,0,0,1-6-2.73c-1.9-2.24-2.82-5.32-2.82-9.4a12.74,12.74,0,0,1,2.9-8.78Z"/><path class="cls-3" d="M484.87,734.34H469.16v-105h15.71v7.4q9.28-9.29,21.09-9.28a29.39,29.39,0,0,1,23.11,10.33q9.23,10.26,9.22,25.91,0,15.29-9.15,25.48a29.43,29.43,0,0,1-22.9,10.13q-11.94,0-21.37-9.57Zm37.36-70.59q0-9.78-5.31-15.92a17.13,17.13,0,0,0-13.54-6.22,17.94,17.94,0,0,0-14,6q-5.37,6-5.37,15.78,0,9.55,5.37,15.78a17.64,17.64,0,0,0,14,6.07,17,17,0,0,0,13.47-6.14A22.33,22.33,0,0,0,522.23,663.75Z"/><path class="cls-1" d="M506,627.44a29.39,29.39,0,0,1,23.11,10.33q9.23,10.26,9.22,25.91,0,15.29-9.15,25.48a29.43,29.43,0,0,1-22.9,10.13q-11.94,0-21.37-9.57v44.62H469.16v-105h15.71v7.4q9.28-9.29,21.09-9.28m-2.65,57.81a17,17,0,0,0,13.47-6.14,22.33,22.33,0,0,0,5.45-15.36q0-9.78-5.31-15.92a17.13,17.13,0,0,0-13.54-6.22,17.94,17.94,0,0,0-14,6q-5.37,6-5.37,15.78,0,9.55,5.37,15.78a17.64,17.64,0,0,0,14,6.07M506,617.44a37.24,37.24,0,0,0-15.77,3.41,10,10,0,0,0-5.32-1.53H469.16a10,10,0,0,0-10,10v105a10,10,0,0,0,10,10h15.71a10,10,0,0,0,10-10V707.57a37.73,37.73,0,0,0,11.37,1.72,39.2,39.2,0,0,0,30.35-13.45c7.76-8.66,11.7-19.48,11.7-32.16,0-12.9-3.95-23.85-11.74-32.55-8-9.09-18.29-13.69-30.59-13.69Zm-2.65,57.81c-3.63,0-5.29-1.34-6.44-2.65-1.94-2.25-2.9-5.27-2.9-9.2s.92-7,2.82-9.11c1.19-1.33,2.9-2.68,6.59-2.68a7.16,7.16,0,0,1,6,2.76c1.93,2.23,2.87,5.3,2.87,9.38,0,3.7-.93,6.47-2.93,8.72l-.09.1a7,7,0,0,1-5.9,2.68Z"/><path class="cls-3" d="M605,629.32h15.78v68H605v-7.12q-9.7,9.07-20.88,9.08a30.08,30.08,0,0,1-23.32-10.2q-9.15-10.4-9.14-26,0-15.3,9.14-25.49a29.5,29.5,0,0,1,22.9-10.19q11.88,0,21.3,9.77Zm-37.29,33.8q0,9.76,5.24,15.92a17.17,17.17,0,0,0,13.55,6.21,18,18,0,0,0,14.1-6Q606,673,606,663.47t-5.38-15.78a17.77,17.77,0,0,0-14-6.08,17.37,17.37,0,0,0-13.55,6.15A22.66,22.66,0,0,0,567.75,663.12Z"/><path class="cls-1" d="M583.74,627.44q11.88,0,21.3,9.77v-7.89h15.78v68H605v-7.12q-9.7,9.07-20.88,9.08a30.08,30.08,0,0,1-23.32-10.2q-9.15-10.4-9.14-26,0-15.3,9.14-25.49a29.5,29.5,0,0,1,22.9-10.19m2.8,57.81a18,18,0,0,0,14.1-6Q606,673,606,663.47t-5.38-15.78a17.77,17.77,0,0,0-14-6.08,17.37,17.37,0,0,0-13.55,6.15,22.66,22.66,0,0,0-5.38,15.36q0,9.76,5.24,15.92a17.17,17.17,0,0,0,13.55,6.21m-2.8-67.81A39.23,39.23,0,0,0,553.4,631c-7.77,8.66-11.7,19.48-11.7,32.17s3.91,23.79,11.63,32.58l.09.1c8.09,9,18.44,13.49,30.74,13.49a36.78,36.78,0,0,0,15.61-3.46,10,10,0,0,0,5.27,1.5h15.78a10,10,0,0,0,10-10v-68a10,10,0,0,0-10-10H605a9.92,9.92,0,0,0-5.48,1.64,36.55,36.55,0,0,0-15.82-3.52Zm-3.09,36.9a7.46,7.46,0,0,1,6-2.73,7.87,7.87,0,0,1,6.44,2.66c2,2.28,2.9,5.29,2.9,9.2s-.94,6.89-2.89,9.17c-1.18,1.3-2.9,2.61-6.59,2.61a7.14,7.14,0,0,1-6-2.73c-1.9-2.24-2.83-5.32-2.83-9.4a12.79,12.79,0,0,1,2.9-8.78Z"/><path class="cls-3" d="M640.65,629.32h15.78v6.29q8.24-8.18,18.57-8.17,11.88,0,18.51,7.47,5.72,6.35,5.72,20.74v41.68H683.45v-38q0-10.07-2.79-13.9t-9.91-3.91q-7.83,0-11.11,5.17t-3.21,17.8v32.82H640.65Z"/><path class="cls-1" d="M675,627.44q11.88,0,18.51,7.47,5.72,6.35,5.72,20.74v41.68H683.45v-38q0-10.07-2.79-13.9t-9.91-3.91q-7.83,0-11.11,5.17t-3.21,17.8v32.82H640.65v-68h15.78v6.29q8.24-8.18,18.57-8.17m0-10a34,34,0,0,0-14,3,10,10,0,0,0-4.53-1.08H640.65a10,10,0,0,0-10,10v68a10,10,0,0,0,10,10h15.78a10,10,0,0,0,10-10V664.51c0-9.54,1.5-12.2,1.67-12.47a4.58,4.58,0,0,1,2.65-.5,9.53,9.53,0,0,1,1.92.16,26.27,26.27,0,0,1,.78,7.65v38a10,10,0,0,0,10,10h15.78a10,10,0,0,0,10-10V655.65c0-12.25-2.7-21.21-8.27-27.41-6.29-7.07-15.26-10.8-26-10.8Z"/><path class="cls-4" d="M883.64,189.34c0,.11.54,1.63,1.19,3.39,1.89,5.18,1.75,4.34,1.28,7.25-1.07,6.71-2,10.62-5.21,21.34-5.19,17.46-5.71,18.89-9,25-.79,1.48-1.43,2.73-1.42,2.77s.15.07.32,0,.27,0,.24,0-2.46.5-5.41,1-6.51,1.16-7.9,1.42-3.71.67-5.13.92l-5.12.91c-1.4.26-7.24,1.3-13,2.32s-11.6,2.06-13,2.32l-5.16.93c-1.43.24-3.16.56-3.86.69-1.22.23-1.29.23-3.43-.21s-3.32-.85-3.36-1.16c0-.07.1-1.45.26-3.1a32.77,32.77,0,0,0,.21-6.94c-.18-1.41-.44-1.79-1.34-2a7.61,7.61,0,0,0-3.33.59c-.09.11-.8,1.82-1.57,3.8a18.9,18.9,0,0,1-1.59,3.6c-.12,0-6.45-3.42-14.09-7.59l-14.63-8-.73-.38-2.66.64c-1.46.35-2.68.68-2.7.71a3.34,3.34,0,0,0,.66.78l13,12.93c6.73,6.72,12.2,12.27,12.16,12.34a1.6,1.6,0,0,1-.71.32,7.43,7.43,0,0,0-2.78,1.51,1.22,1.22,0,0,0-.24.9c.08.66,1,1.32,2.18,1.62a2.94,2.94,0,0,1,.91.33s-5.41,3.72-12,8.16l-12.38,8.29-.33.23.42,0a12.07,12.07,0,0,0,1.6-.08l1.19-.12,4.91-2.49c7.08-3.58,13.38-7,18-9.73,2.23-1.32,4.27-2.49,4.54-2.6.43-.17.91-.11,4.34.59,5.13,1,7.06,1.32,16.61,2.51,14.94,1.82,16.66,1.82,27.77-.08l7-1.18,2.17-.34-13.69,9.1c-20.35,13.51-26.84,17.7-33,21.35-6.36,3.73-16,9-24.88,13.61l-6.16,3.19-4.41.09-5.11.1c-1.1,0-.68.14.52.16s1.87,0,6.57.2l4.69.15.89,0,8.34-3.75,12.57-5.67c3.3-1.48,6.6-3.17,14.74-7.5,17.43-9.24,26.84-14.38,30.5-16.63l3.42-2.12.74.11c.4.07,1.77.15,3,.21l2.32.1.86-.64a4.28,4.28,0,0,1,.92-.58,1.55,1.55,0,0,1,0,.69c-.1.59-.15.64-1,1.07-.48.26-.88.48-.9.51a4,4,0,0,0,.88.55c.77.41,1,.58,1.06,1,.69,2.46,1.53,3.4,3.59,4.05,2.44.77,9.15.65,12.92-.22,3.58-.85,4.53-1.38,5.37-3a7.59,7.59,0,0,0,.78-4.4,7.7,7.7,0,0,0-1.35-4.14,5,5,0,0,0-4-2.45,28.75,28.75,0,0,0-6.36.39,9.81,9.81,0,0,1-1.56.26,3.7,3.7,0,0,0-1.28.39c-1.66.73-2.1.84-5.38,1.23l-3.22.4,2.34-1.23c11.42-6,14-7.24,18.75-9.27,2.69-1.16,5.23-2.17,5.63-2.26,1.53-.35,10.6-1.81,17-2.74,13.44-1.95,17.7-2.85,22.43-4.7,8.23-3.24,12.11-5.63,14.09-8.71.87-1.36,1.07-2,.87-2.74-.62-2.51-6.2-5.36-13.6-6.91a29.61,29.61,0,0,0-8.68-.69l-1.39.09,0-.46a19,19,0,0,0-.06-1.93,6.76,6.76,0,0,0-.45-2.37,5.89,5.89,0,0,0-5.13-4.06,31.6,31.6,0,0,0-6.21.46,8.14,8.14,0,0,1-1.64.28,3.53,3.53,0,0,0-1.17.34,10.18,10.18,0,0,1-4.25,1.18,4.14,4.14,0,0,1-1.42-.05c0-.07.06-1,.17-2.1.66-7.33.74-12.83.46-32a27,27,0,0,1,.1-4.17c.1-.09,0-.26-.33-.56-1.48-1.38-8.65-7.69-8.74-7.68S883.63,189.24,883.64,189.34Z"/><path class="cls-3" d="M883.73,189.16h0c.1,0,7.26,6.3,8.74,7.68.33.3.43.47.33.56a27,27,0,0,0-.1,4.17c.28,19.16.2,24.66-.46,32-.11,1.08-.18,2-.17,2.1s.29.07.71.07c.21,0,.45,0,.71,0a10.18,10.18,0,0,0,4.25-1.18,3.73,3.73,0,0,1,1.14-.34H899a9,9,0,0,0,1.59-.28,32.39,32.39,0,0,1,5.46-.48c.27,0,.53,0,.75,0a5.89,5.89,0,0,1,5.13,4.06,6.76,6.76,0,0,1,.45,2.37,19,19,0,0,1,.06,1.93l0,.46,1.39-.09c.74,0,1.43-.07,2.11-.07a30.35,30.35,0,0,1,6.57.76c7.4,1.55,13,4.4,13.6,6.91.2.77,0,1.38-.87,2.74-2,3.08-5.86,5.47-14.09,8.71-4.73,1.85-9,2.75-22.43,4.7-6.41.93-15.48,2.39-17,2.74-.4.09-2.94,1.1-5.63,2.26-4.76,2-7.33,3.3-18.75,9.27l-2.34,1.23,3.22-.4c3.28-.39,3.72-.5,5.38-1.23a4.24,4.24,0,0,1,1.24-.39h.05a10.66,10.66,0,0,0,1.55-.26,29.64,29.64,0,0,1,5.16-.44c.47,0,.89,0,1.2.05a5,5,0,0,1,4,2.45,7.7,7.7,0,0,1,1.35,4.14,7.59,7.59,0,0,1-.78,4.4c-.84,1.62-1.79,2.15-5.37,3a37.64,37.64,0,0,1-7.72.73A19.75,19.75,0,0,1,859,293c-2.06-.65-2.9-1.59-3.59-4.05-.11-.4-.29-.57-1.06-1a4,4,0,0,1-.88-.55s.42-.25.9-.51c.82-.43.87-.48,1-1.07a1.55,1.55,0,0,0,0-.69h0a4.1,4.1,0,0,0-.92.58l-.86.64-2.32-.1c-1.28-.06-2.65-.14-3-.21l-.74-.11L844.07,288c-3.66,2.25-13.06,7.39-30.5,16.63-8.14,4.33-11.44,6-14.74,7.5l-12.57,5.67-8.34,3.75-.89,0-4.69-.15c-4.7-.16-5.24-.16-6.57-.2s-1.62-.15-.52-.16l5.11-.1,4.41-.09,6.16-3.19c8.83-4.58,18.52-9.88,24.88-13.61,6.2-3.65,12.69-7.84,33-21.35l13.69-9.1-2.17.34-7,1.18a71.09,71.09,0,0,1-12.55,1.44,133.4,133.4,0,0,1-15.22-1.36C806,274,804.08,273.74,799,272.71a26.74,26.74,0,0,0-3.87-.67,1.21,1.21,0,0,0-.47.08c-.27.11-2.31,1.28-4.54,2.6-4.63,2.75-10.93,6.15-18,9.73l-4.91,2.49-1.19.12c-.55.05-1.14.09-1.45.09h-.15l-.42,0,.33-.23,12.38-8.29c6.63-4.44,12-8.12,12-8.16a2.94,2.94,0,0,0-.91-.33c-1.21-.3-2.1-1-2.18-1.62a1.22,1.22,0,0,1,.24-.9,7.43,7.43,0,0,1,2.78-1.51,1.6,1.6,0,0,0,.71-.32c0-.07-5.43-5.62-12.16-12.34l-13-12.93a3.34,3.34,0,0,1-.66-.78s1.24-.36,2.7-.71l2.66-.64.73.38,14.63,8c7.64,4.17,14,7.59,14.09,7.59a18.9,18.9,0,0,0,1.59-3.6c.77-2,1.48-3.69,1.57-3.8a7.64,7.64,0,0,1,3-.62,1.58,1.58,0,0,1,.34,0c.9.18,1.16.56,1.34,2a32.77,32.77,0,0,1-.21,6.94c-.16,1.65-.27,3-.26,3.1,0,.31,1.3.74,3.36,1.16a11.9,11.9,0,0,0,2.26.36,5.83,5.83,0,0,0,1.17-.15c.7-.13,2.43-.45,3.86-.69l5.16-.93c1.4-.26,7.26-1.29,13-2.32s11.6-2.06,13-2.32l5.12-.91c1.42-.25,3.72-.68,5.13-.92s4.94-.88,7.9-1.42,5.39-1,5.41-1,0,0-.11,0h-.25c-.12,0-.2,0-.2-.06s.63-1.29,1.42-2.77c3.25-6.11,3.77-7.54,9-25,3.19-10.72,4.14-14.63,5.21-21.34.47-2.91.61-2.07-1.28-7.25-.65-1.76-1.17-3.28-1.19-3.39s0-.18.09-.18m0-10a10.1,10.1,0,0,0-10,11.4c.14,1.15.29,1.71,1.72,5.61l.5,1.35c.1.28.21.57.3.83v0c-1,6.23-1.87,9.79-4.93,20.07-4.75,16-5.4,17.84-7.53,21.91l-4.4.79c-1.43.25-2.66.47-3.38.61l-2.52.45-2.55.46h-.1l-5,.9-.09,0-8.4,1.5-4.54.81-5.3.94-7.72,1.38-3.49.62c0-.6-.08-1.2-.16-1.8-1-8-6.79-10-9.24-10.54l-.18,0a11.78,11.78,0,0,0-2.18-.2c-2.7,0-7.64.56-10.7,4.24l-4.75-2.59-5.48-3-9.3-5.08-.76-.39a10,10,0,0,0-4.61-1.13,9.81,9.81,0,0,0-2.35.28l-2.66.64c-3.63.87-6,1.45-8.24,4.27-.56.73-5.27,7.21,1.46,14l13,13,5.68,5.7c-.06.34-.11.68-.15,1l-4.55,3.06c-10.22,6.83-12.08,8.09-12.49,8.36h0l-.32.23a10,10,0,0,0,4.85,18.2l.42,0h.07c.21,0,.52,0,.89,0,.69,0,1.61-.06,2.46-.14l1.18-.12a10,10,0,0,0,3.53-1l4.9-2.49c7.38-3.73,13.82-7.21,18.6-10.05l1.48-.87.29.06c5.42,1.09,7.52,1.41,17.38,2.63l2.3.28c-7.91,5.18-12,7.73-15.89,10-6.17,3.62-15.76,8.87-24.42,13.36l-4.08,2.11-2.08,0-5,.1c-.48,0-.89,0-1.29.06a10.07,10.07,0,0,0-9.22,9.93c0,3.44,2.24,10,10.94,10.17l.64,0c1,0,2,.05,5.82.18l4.83.15.87,0h.21a10,10,0,0,0,4.1-.88l8.34-3.75,2.13-1L803,321.27c3.42-1.53,6.72-3.2,15.31-7.76,16.24-8.62,25.65-13.74,30.07-16.36A14.1,14.1,0,0,0,856,302.5a25.76,25.76,0,0,0,8.24,1,47.45,47.45,0,0,0,10-1c3.53-.83,8.86-2.08,12-8.15a17.54,17.54,0,0,0,1.86-9.77,18,18,0,0,0-1.68-6.59c3.26-.55,8.93-1.45,13.73-2.15,13.27-1.92,18.69-2.95,24.62-5.28,8.89-3.49,15.13-6.82,18.86-12.6a13,13,0,0,0,2.16-10.61c-2.12-8.53-12.73-12.46-21.25-14.24-1.42-.3-2.71-.53-4-.68a15.78,15.78,0,0,0-13.23-8.95c-.42,0-.84,0-1.31,0-.81,0-2,0-3.21.13.1-5,.05-11.48-.1-22.14,0-1.22,0-2,0-2.44a11.22,11.22,0,0,0,.13-1.3,10.38,10.38,0,0,0-3.52-8.14c-1.18-1.1-4.48-4-5.12-4.57-1-.9-2-1.75-2.72-2.37-1.84-1.59-3.92-3.38-7.57-3.44Z"/></svg>